<?xml version="1.0" encoding="iso-8859-1"?>
<!-- Generator: Adobe Illustrator 19.0.0, SVG Export Plug-In . SVG Version: 6.00 Build 0)  -->
<svg version="1.1" id="Capa_1" xmlns="http://www.w3.org/2000/svg" xmlns:xlink="http://www.w3.org/1999/xlink" x="0px" y="0px"
	 viewBox="0 0 512 512" style="enable-background:new 0 0 512 512;" xml:space="preserve">
<path style="fill:#DFCCBF;" d="M166,494.499c-23.335,23.335-61.522,23.335-84.856,0c-12.305-12.304-18.456-29.488-17.396-46.247
	c-16.759,1.06-33.942-5.091-46.247-17.396c-23.335-23.335-23.335-61.522,0-84.856c21.214-21.214,54.732-23.336,78.281-5.728
	c8.483-10.607,16.758-21.427,24.608-30.973c4.668-5.939,8.485-12.304,11.242-18.88l50.854,4.727l35.214,35.214l3.879,50.006
	c-6.575,2.758-12.941,6.575-18.88,11.242c-9.546,7.85-20.366,16.125-30.973,24.608C189.336,439.766,187.214,473.285,166,494.499z"/>
<path style="fill:#C8AD92;" d="M166,494.499c-23.335,23.335-61.522,23.335-84.856,0c-12.305-12.304-18.456-29.488-17.396-46.247
	l135.923-135.923l18.032,18.032l3.879,50.006c-6.575,2.758-12.941,6.575-18.88,11.242c-9.546,7.85-20.366,16.125-30.973,24.608
	C189.336,439.766,187.214,473.285,166,494.499z"/>
<path style="fill:#FE9923;" d="M448.177,297.179c-48.58,48.58-113.707,71.704-174.168,61.733
	c-11.453-2.121-40.759,16.577-52.428,21.456l-89.948-89.948c4.879-11.668,23.577-40.974,21.456-52.428
	c-9.971-60.46,13.153-125.588,61.733-174.168c75.947-75.947,190.29-85.493,254.568-21.214S524.124,221.232,448.177,297.179z"/>
<path style="fill:#FE8821;" d="M448.177,297.179c-48.58,48.58-113.707,71.704-174.168,61.733
	c-11.453-2.121-40.759,16.577-52.428,21.456l-44.973-44.974L469.391,42.609C533.67,106.889,524.124,221.232,448.177,297.179z"/>
<g>
	<circle style="fill:#BF6015;" cx="311.283" cy="73.434" r="15.001"/>
	<circle style="fill:#BF6015;" cx="311.283" cy="115.855" r="15.001"/>
	<circle style="fill:#BF6015;" cx="353.715" cy="115.855" r="15.001"/>
</g>
<g>
</g>
<g>
</g>
<g>
</g>
<g>
</g>
<g>
</g>
<g>
</g>
<g>
</g>
<g>
</g>
<g>
</g>
<g>
</g>
<g>
</g>
<g>
</g>
<g>
</g>
<g>
</g>
<g>
</g>
</svg>
