<?xml version="1.0" encoding="iso-8859-1"?>
<!-- Generator: Adobe Illustrator 19.0.0, SVG Export Plug-In . SVG Version: 6.00 Build 0)  -->
<svg version="1.1" id="Layer_1" xmlns="http://www.w3.org/2000/svg" xmlns:xlink="http://www.w3.org/1999/xlink" x="0px" y="0px"
	 viewBox="0 0 512 512" style="enable-background:new 0 0 512 512;" xml:space="preserve">
<path style="fill:#685642;" d="M414.351,265.238c26.233,0,47.505,21.272,47.505,47.505c0,26.233-21.272,47.505-47.505,47.505
	c-26.233,0-47.505-21.272-47.505-47.505C366.845,286.509,388.117,265.238,414.351,265.238z"/>
<path style="fill:#61AA47;" d="M341.731,376.083c-10.768-13.027-17.112-29.464-17.112-48.139c0-10.842,2.154-21.177,6.07-30.709
	c0.422-1.056,0.866-2.09,1.341-3.125c-3.399-10.704-5.732-22.18-6.777-34.204c-0.422-4.772-0.633-9.628-0.633-14.558
	c0-67.721,68.619-106.792,89.732-106.792s89.732,39.07,89.732,106.792c0,17.345-2.66,33.813-7.411,48.761
	c4.751,10.377,7.411,21.8,7.411,33.834c0,46.988-40.179,79.809-89.732,79.809C384.486,407.753,358.031,395.835,341.731,376.083z
	 M461.856,312.743c0-26.233-21.272-47.505-47.505-47.505c-26.233,0-47.505,21.272-47.505,47.505
	c0,26.233,21.272,47.505,47.505,47.505C440.584,360.248,461.856,338.976,461.856,312.743z"/>
<rect x="124.041" y="376.083" style="fill:#685642;" width="126.68" height="31.67"/>
<path style="fill:#A58763;" d="M341.731,376.083h-91.009h-126.68h-95.01c-11.665,0-21.113-9.448-21.113-21.113v-58.062h321.979
	l0.792,0.327c-3.917,9.533-6.07,19.868-6.07,30.709C324.619,346.619,330.963,363.056,341.731,376.083z"/>
<path style="fill:#685642;" d="M332.029,294.11c-0.475,1.035-0.918,2.069-1.341,3.125l-0.792-0.327H7.918v-36.948h31.67h285.031
	l0.633-0.053C326.297,271.931,328.63,283.406,332.029,294.11z"/>
<path style="fill:#23A24D;" d="M324.619,259.959H39.588c0,0,47.759-91.6,147.794-84.454
	C261.278,180.784,229.608,259.959,324.619,259.959z"/>
<path d="M512,245.349c0-39.862-21.482-68.016-39.502-84.615c-17.564-16.179-36.863-26.037-50.23-29.077V96.33h-15.835v35.326
	c-13.367,3.041-32.666,12.898-50.23,29.077c-18.02,16.599-39.502,44.753-39.502,84.615c0,2.219,0.05,4.435,0.133,6.64
	c-21.188-0.433-41.729-4.417-64.973-41.078c-12.059-19.019-25.727-40.576-63.914-43.303c-43.095-3.083-83.651,11.291-117.271,41.56
	c-19.184,17.272-30.928,34.96-35.68,42.873H0v102.928c0,16.007,13.023,29.031,29.031,29.031h87.093v31.67h142.515v-31.67h79.483
	c18.198,20.17,45.741,31.67,76.228,31.67c55.669,0,97.649-37.714,97.649-87.726c0-11.837-2.318-23.366-6.897-34.317
	C509.681,278.232,512,262.005,512,245.349z M81.674,220.572c30.691-27.455,66.059-39.964,105.144-37.17
	c30.22,2.159,40.16,17.837,51.67,35.989c7.176,11.318,14.832,23.385,27.547,32.651H53.894
	C59.695,243.697,68.952,231.953,81.674,220.572z M318.165,267.877c0.934,7.169,2.316,14.229,4.138,21.113H15.835v-21.113H318.165z
	 M242.804,399.836H131.959v-15.835h110.845V399.836z M29.031,368.165c-7.277,0-13.196-5.919-13.196-13.196v-50.144h303.956
	c-2.037,7.522-3.09,15.257-3.09,23.119c0,14.418,3.483,28.077,10.142,40.221H29.031z M489.473,297.406
	c4.44,9.699,6.692,19.974,6.692,30.54c0,20.07-8.364,38.375-23.553,51.542c-15.135,13.122-35.826,20.348-58.261,20.348
	c-27.17,0-51.412-10.493-66.518-28.797c-0.727-0.88-1.423-1.781-2.101-2.69v-0.184H345.6c-8.553-11.559-13.064-25.383-13.064-40.221
	c0-9.537,1.842-18.856,5.477-27.701l0.026-0.066c0.377-0.945,0.766-1.851,1.188-2.77l1.273-2.78l-0.925-2.915
	c-3.299-10.391-5.465-21.322-6.437-32.504c-0.399-4.523-0.602-9.186-0.602-13.861c0-34.122,18.704-58.515,34.395-72.968
	c19.186-17.672,39.638-25.906,47.42-25.906s28.234,8.234,47.42,25.906c15.69,14.454,34.395,38.847,34.395,72.969
	c0,16.069-2.368,31.668-7.038,46.363l-0.927,2.914L489.473,297.406z"/>
<path d="M414.351,257.32c-30.56,0-55.423,24.863-55.423,55.423s24.863,55.423,55.423,55.423s55.423-24.863,55.423-55.423
	S444.91,257.32,414.351,257.32z M414.351,352.33c-21.829,0-39.588-17.758-39.588-39.588c0-21.829,17.758-39.588,39.588-39.588
	s39.588,17.758,39.588,39.588C453.938,334.572,436.18,352.33,414.351,352.33z"/>
<g>
</g>
<g>
</g>
<g>
</g>
<g>
</g>
<g>
</g>
<g>
</g>
<g>
</g>
<g>
</g>
<g>
</g>
<g>
</g>
<g>
</g>
<g>
</g>
<g>
</g>
<g>
</g>
<g>
</g>
</svg>
