<?xml version="1.0" encoding="iso-8859-1"?>
<!-- Generator: Adobe Illustrator 19.0.0, SVG Export Plug-In . SVG Version: 6.00 Build 0)  -->
<svg version="1.1" id="Capa_1" xmlns="http://www.w3.org/2000/svg" xmlns:xlink="http://www.w3.org/1999/xlink" x="0px" y="0px"
	 viewBox="0 0 512 512" style="enable-background:new 0 0 512 512;" xml:space="preserve">
<circle style="fill:#F4C534;" cx="120.112" cy="125.168" r="107.088"/>
<g>
	<path style="fill:#FFD93B;" d="M124.384,56.576c-2.288,21.456-2.72,42.24-2.304,49.296c0,0,0,0,0,0.16
		c0.304,0.768,0.624,1.536,0.928,2.16c3.856-4,7.392-14.784,13.552-33.424c-6.016,20.32-8.944,31.408-7.552,36.656
		c2-0.304,4.16-1.072,7.088-2.768c-1.072,2.448-2,4.768-2.16,6.464c15.6-8.784,29.28-17.728,42.368-27.264
		c2.512-1.792,7.76-5.632,13.136-9.792c3.808-2.96,4.672-8.592,1.568-12.288c-13.76-16.368-33.088-27.872-55.056-31.664
		c-4.736-0.832-9.184,2.752-9.84,7.52C125.264,47.872,124.656,53.744,124.384,56.576z"/>
	<path style="fill:#FFD93B;" d="M180.624,155.168c2.832,1.312,8.688,3.936,14.896,6.496c4.704,1.936,9.968-0.608,11.696-5.392
		c3.52-9.728,5.472-20.192,5.472-31.12c0-10.896-1.952-21.328-5.44-31.024c-1.728-4.784-6.992-7.328-11.696-5.392
		c-6.224,2.56-12.096,5.2-14.928,6.512c-20.96,9.28-24.176,11.712-39.6,20.032c-1.456,1.456-4.048,4.352-4.928,6.304
		c4.624,3.232,15.712,3.536,37.44,3.856c-19.424,0.304-30.656,0.608-35.904,3.072c4,4.16,14.48,8.48,32.512,15.552
		c-13.552-4.768-22.96-7.856-29.12-9.088C152.496,142.048,168.192,149.664,180.624,155.168z"/>
	<path style="fill:#FFD93B;" d="M105.44,114.656c-0.464-1.696-1.536-3.392-2.768-5.696c3.072,1.536,5.552,2.304,7.392,2.768
		c0.304-2,0.16-4.624-0.608-7.856c2.624,2.624,4.784,4.624,6.784,5.392c4.224-7.504,0.608-44.128-0.304-52.688
		c-0.288-2.832-0.912-8.704-1.76-14.96c-0.64-4.768-5.088-8.336-9.84-7.52c-22.16,3.792-41.632,15.44-55.392,32
		c-3.12,3.76-2.176,9.424,1.728,12.368C68.864,92.208,96.288,108.768,105.44,114.656z"/>
	<path style="fill:#FFD93B;" d="M176.304,162.56c-17.28-12.592-36.304-24.16-42.512-27.264c0.16,2,1.072,4.32,2.304,6.928
		c-2.624-1.536-4.624-2.304-6.464-2.768c-0.624,1.856-0.768,4.16-0.624,7.392c-2.16-2.464-3.856-4.16-5.552-5.088
		c-0.608,0.784-1.072,1.856-1.536,3.248c0,15.808,0.832,31.488,2.464,47.136c0.288,3.152,0.96,9.744,1.888,16.608
		c0.656,4.784,5.12,8.352,9.872,7.52c21.888-3.84,41.136-15.344,54.848-31.68c3.104-3.696,2.24-9.344-1.584-12.288
		C184.032,168.144,178.784,164.336,176.304,162.56z"/>
	<path style="fill:#FFD93B;" d="M115.92,192.144c1.216-11.68,2.304-27.216,2.304-38.672c0.16-0.304,0.16-0.768,0-1.088
		c-0.16-4.464-0.624-7.552-1.536-9.712c-4.304,3.696-9.248,13.856-17.552,31.728c8.16-19.248,12.48-29.728,11.392-35.28
		c-2.016,0.336-4.624,1.264-7.856,2.8c1.376-2.624,2.464-4.464,3.072-6.16c-5.904,2.944-23.856,13.808-41.904,26.96
		c-2.448,1.68-7.664,5.424-13.024,9.552c-3.824,2.944-4.688,8.592-1.6,12.288c13.712,16.384,32.992,27.92,54.944,31.728
		c4.752,0.832,9.216-2.752,9.856-7.536C114.944,201.904,115.632,195.296,115.92,192.144z"/>
	<path style="fill:#FFD93B;" d="M103.744,128.832c-4.624-2.784-16.176-3.088-36.976-3.392c19.568-0.32,30.816-0.624,36.048-3.088
		c-3.696-3.856-14.016-8.32-32.656-15.552c14.944,5.232,24.64,8.624,30.816,9.392c-8.8-4.944-35.952-19.184-56.128-27.568
		c-4.752-1.968-10.016,0.544-11.776,5.392c-3.504,9.728-5.456,20.192-5.456,31.136c0,10.928,1.952,21.376,5.44,31.104
		c1.728,4.8,7.008,7.344,11.712,5.392c6.128-2.544,11.904-5.152,14.752-6.48c17.696-7.616,34.64-16.72,40.512-20.496
		c-0.624,0-1.392,0.16-2.16,0.16C100.656,132.528,102.672,130.528,103.744,128.832z"/>
</g>
<path style="fill:#DAE5EF;" d="M118.272,121.824L150.8,476.848c1.888,19.92,18.528,35.152,38.624,35.152h161.04
	c19.936,0,36.72-15.232,38.448-35.168l32.544-355.008H118.272z"/>
<path style="fill:#3E4347;" d="M302.464,326.832l-24.496-8.448l92.224-267.28c1.264-3.616,4.016-6.48,7.568-7.856L489.632,0
	l9.344,24.16l-106.24,41.088L302.464,326.832z"/>
<path style="fill:#F4C534;" d="M152.288,234.96l21.968,239.664c0.752,7.872,7.264,13.824,15.168,13.824h161.04
	c7.744,0,14.336-6,15.008-13.76l21.984-239.728L152.288,234.96L152.288,234.96z"/>
<g style="opacity:0.3;">
	<path style="fill:#FFFFFF;" d="M204.016,476.832l-17.92-355.008h-18.192l21.84,355.024c1.248,19.92,12.544,35.152,26.048,35.152
		h9.568C214.384,512,205.12,496.768,204.016,476.832z"/>
</g>
<g>
</g>
<g>
</g>
<g>
</g>
<g>
</g>
<g>
</g>
<g>
</g>
<g>
</g>
<g>
</g>
<g>
</g>
<g>
</g>
<g>
</g>
<g>
</g>
<g>
</g>
<g>
</g>
<g>
</g>
</svg>
