<?xml version="1.0" encoding="iso-8859-1"?>
<!-- Generator: Adobe Illustrator 19.0.0, SVG Export Plug-In . SVG Version: 6.00 Build 0)  -->
<svg version="1.1" id="Capa_1" xmlns="http://www.w3.org/2000/svg" xmlns:xlink="http://www.w3.org/1999/xlink" x="0px" y="0px"
	 viewBox="0 0 512 512" style="enable-background:new 0 0 512 512;" xml:space="preserve">
<path style="fill:#C6866D;" d="M152.325,79.46h176.316c44.239,0,80.144,35.904,80.144,80.144v72.129v48.087v72.129
	c0,44.239-35.905,80.144-80.144,80.144H144.31h-32.058v-0.16c53.456-3.686,96.173-81.186,96.173-176.156
	s-42.716-172.47-96.173-176.156v-0.16h40.073V79.46z"/>
<path style="fill:#D9EEF7;" d="M112.252,79.62c53.456,3.686,96.173,81.186,96.173,176.156s-42.716,172.47-96.173,176.156
	c-1.282,0.081-2.645,0.16-4.007,0.16c-55.3,0-100.18-78.942-100.18-176.317S52.946,79.46,108.246,79.46
	C109.609,79.46,110.97,79.541,112.252,79.62z"/>
<path style="fill:#F2F2F2;" d="M472.901,191.662c17.712,0,32.058,14.346,32.058,32.058s-14.346,32.058-32.058,32.058
	c17.712,0,32.058,14.346,32.058,32.058c0,17.712-14.346,32.058-32.058,32.058c-17.712,0-32.058-14.346-32.058-32.058
	c0-2.805,0.48-5.45,1.122-8.014h-33.18v-48.087h33.18c-0.642-2.564-1.122-5.209-1.122-8.014
	C440.844,206.008,455.189,191.662,472.901,191.662z"/>
<path style="fill:#C6706D;" d="M272.541,255.777c0-94.971-42.716-172.47-96.173-176.157v-0.16h-64.115v0.16
	c53.456,3.687,96.173,81.186,96.173,176.157c0,94.971-42.716,172.47-96.173,176.156v0.16h64.115v-0.16
	C229.825,428.247,272.541,350.747,272.541,255.777z"/>
<path style="fill:#FD6149;" d="M104.238,135.56c31.015,0,56.101,53.857,56.101,120.216s-25.085,120.216-56.101,120.216
	s-56.101-53.857-56.101-120.216S73.223,135.56,104.238,135.56z"/>
<g>
	<path style="fill:#231F20;" d="M495.632,256c9.913-7.206,16.368-18.892,16.368-32.058c0-21.842-17.77-39.611-39.611-39.611
		s-39.611,17.77-39.611,39.611c0,0.154,0.001,0.308,0.003,0.461h-16.952v-64.577c0-48.356-39.341-87.697-87.698-87.697h-64.115
		v15.107h64.115c40.026,0,72.591,32.563,72.591,72.59v192.345c0,40.026-32.564,72.591-72.591,72.591H150.758
		c15.903-11.7,30.055-29.87,41.08-53.351l-13.675-6.421c-16.962,36.132-41.361,57.865-66.895,59.626
		c-1.219,0.077-2.406,0.146-3.534,0.146c-23.914,0-46.735-16.983-64.259-47.821C25.181,344.753,15.107,301.801,15.107,256
		s10.074-88.753,28.367-120.942c17.523-30.838,40.346-47.821,64.259-47.821c1.128,0,2.315,0.068,3.489,0.143
		c23.242,1.602,45.271,19.337,62.026,49.939c17.483,31.93,27.113,74.079,27.113,118.682c0,33.21-5.382,65.39-15.565,93.064
		l14.179,5.217c10.79-29.326,16.493-63.311,16.493-98.281c0-75.6-26.431-140.511-64.711-168.763h89.215V72.131
		c0,0-130.843,0-132.238,0c-29.582,0-57.068,19.698-77.395,55.464C10.775,162.02,0,207.622,0,256s10.775,93.98,30.339,128.406
		c20.326,35.767,47.813,55.464,77.395,55.464c1.382,0,220.397,0,220.397,0c48.358,0,87.698-39.341,87.698-87.698v-64.576h16.952
		c-0.002,0.153-0.003,0.307-0.003,0.461c0,21.842,17.77,39.611,39.611,39.611S512,309.899,512,288.058
		C512,274.891,505.545,263.206,495.632,256z M472.389,312.562c-13.512,0-24.504-10.992-24.504-24.504
		c0-1.795,0.276-3.702,0.897-6.183l2.346-9.386h-35.3v-32.978h35.3l-2.346-9.386c-0.62-2.481-0.897-4.387-0.897-6.183
		c0-13.512,10.992-24.504,24.504-24.504s24.504,10.992,24.504,24.504c0,13.512-10.992,24.504-24.504,24.504v15.107
		c13.512,0,24.504,10.992,24.504,24.504S485.901,312.562,472.389,312.562z"/>
	<path style="fill:#231F20;" d="M54.935,172.945C45.35,195.897,40.072,225.394,40.072,256c0,33.186,6.082,64.504,17.128,88.186
		c11.905,25.526,28.429,39.584,46.527,39.584s34.622-14.058,46.527-39.584c11.045-23.682,17.128-55,17.128-88.186
		s-6.082-64.504-17.128-88.186c-11.905-25.526-28.429-39.584-46.527-39.584c-15.01,0-28.872,9.548-40.09,27.611l12.833,7.971
		c8.199-13.203,17.879-20.474,27.257-20.474c11.72,0,23.688,11.249,32.836,30.863c10.132,21.723,15.712,50.774,15.712,81.8
		s-5.58,60.076-15.712,81.8c-9.148,19.614-21.116,30.863-32.836,30.863s-23.687-11.25-32.835-30.864
		c-10.132-21.723-15.712-50.774-15.712-81.8c0-28.654,4.865-56.083,13.697-77.235L54.935,172.945z"/>
</g>
<g>
	<path style="fill:#FFFFFF;" d="M79.783,298.644c5.806,13.548,14.31,21.009,23.943,21.009v-15.107
		c-5.597,0-16.489-17.136-16.489-48.547H72.129C72.129,271.985,74.847,287.13,79.783,298.644z"/>
	<path style="fill:#FFFFFF;" d="M127.671,213.355c-5.807-13.548-14.311-21.009-23.944-21.009v15.107
		c5.597,0,16.49,17.136,16.49,48.547h15.107C135.323,240.015,132.606,224.869,127.671,213.355z"/>
</g>
<g>
	<rect x="72.132" y="223.94" style="fill:#231F20;" width="15.107" height="16.029"/>
	<rect x="120.214" y="272.032" style="fill:#231F20;" width="15.107" height="16.029"/>
</g>
<path style="fill:#FFFFFF;" d="M375.755,199.898v-48.087c0-30.023-24.713-44.133-37.779-47.4l-0.902-0.226h-65.044v15.107h63.055
	c4.351,1.36,25.564,9.192,25.564,32.518v48.087H375.755z"/>
<rect x="239.975" y="104.19" style="fill:#231F20;" width="16.029" height="15.107"/>
<g>
</g>
<g>
</g>
<g>
</g>
<g>
</g>
<g>
</g>
<g>
</g>
<g>
</g>
<g>
</g>
<g>
</g>
<g>
</g>
<g>
</g>
<g>
</g>
<g>
</g>
<g>
</g>
<g>
</g>
</svg>
