<?xml version="1.0" encoding="iso-8859-1"?>
<!-- Generator: Adobe Illustrator 19.0.0, SVG Export Plug-In . SVG Version: 6.00 Build 0)  -->
<svg version="1.1" id="Layer_1" xmlns="http://www.w3.org/2000/svg" xmlns:xlink="http://www.w3.org/1999/xlink" x="0px" y="0px"
	 viewBox="0 0 511.999 511.999" style="enable-background:new 0 0 511.999 511.999;" xml:space="preserve">
<path style="fill:#D4EBE9;" d="M185.012,504.163c-17.078,0-30.923-13.845-30.923-30.924V306.693c0-8.775,3.728-17.128,10.239-22.987
	c18.2-20.548,48.9-70.535,52.761-176.183c0.606-16.629,14.261-29.795,30.902-29.795h16.012c16.639,0,30.294,13.167,30.902,29.795
	c3.861,105.668,34.572,155.652,52.761,176.182c6.51,5.859,10.239,14.213,10.239,22.988V473.24c0,17.079-13.845,30.924-30.923,30.924
	L185.012,504.163L185.012,504.163z"/>
<path style="fill:#F96300;" d="M347.667,283.705c-12.406-14.002-30.634-41.714-42.199-91.444h-98.941
	c-11.561,49.717-29.786,77.431-42.198,91.445c-6.51,5.859-10.239,14.212-10.239,22.987V473.24c0,17.079,13.845,30.924,30.923,30.924
	h141.971c17.078,0,30.923-13.845,30.923-30.924V306.693C357.906,297.917,354.178,289.564,347.667,283.705z"/>
<path style="opacity:0.1;enable-background:new    ;" d="M197.484,473.24V306.693c0-8.775,3.728-17.128,10.239-22.987
	c12.412-14.014,30.636-41.728,42.198-91.445h-43.394c-11.561,49.717-29.786,77.431-42.198,91.445
	c-6.51,5.859-10.239,14.212-10.239,22.987V473.24c0,17.079,13.845,30.924,30.923,30.924h43.394
	C211.328,504.163,197.484,490.318,197.484,473.24z"/>
<g>
	<path style="fill:#FFEA33;" d="M154.09,310.89V448.5h83.769c8.541,0,15.463-6.922,15.463-15.461V326.352
		c0-8.539-6.922-15.461-15.463-15.461H154.09V310.89z"/>
	<path style="fill:#FFEA33;" d="M357.906,448.5V310.89h-21.628c-8.541,0-15.463,6.922-15.463,15.461v106.687
		c0,8.539,6.922,15.461,15.463,15.461h21.628V448.5z"/>
</g>
<path style="fill:#FFEA92;" d="M313.206,95.97c0,9.394-7.616,17.008-17.008,17.008h-80.402c-9.394,0-17.008-7.615-17.008-17.008l0,0
	c0-9.394,7.614-17.008,17.008-17.008h80.402C305.59,78.961,313.206,86.576,313.206,95.97L313.206,95.97z"/>
<path style="opacity:0.1;enable-background:new    ;" d="M231.441,95.97c0-9.394,7.614-17.008,17.008-17.008h-32.653
	c-9.394,0-17.008,7.615-17.008,17.008s7.614,17.008,17.008,17.008h32.653C239.055,112.978,231.441,105.362,231.441,95.97z"/>
<path style="fill:#FFEA33;" d="M212.532,78.961c-7.274,0-13.171-5.897-13.171-13.171V34.179c0-14.525,11.817-26.342,26.343-26.342
	h60.587c14.524,0,26.343,11.818,26.343,26.342V65.79c0,7.274-5.898,13.171-13.171,13.171
	C299.464,78.961,212.532,78.961,212.532,78.961z"/>
<path style="opacity:0.1;enable-background:new    ;" d="M231.965,65.79V34.179c0-14.524,11.817-26.342,26.343-26.342h-32.604
	c-14.526,0-26.343,11.818-26.343,26.342V65.79c0,7.274,5.898,13.171,13.171,13.171h32.604
	C237.864,78.961,231.965,73.064,231.965,65.79z"/>
<path d="M205.358,352.653H179.8c-4.329,0-7.837,3.509-7.837,7.837s3.508,7.837,7.837,7.837h25.558c4.329,0,7.837-3.509,7.837-7.837
	S209.687,352.653,205.358,352.653z"/>
<path d="M205.358,387.332H179.8c-4.329,0-7.837,3.509-7.837,7.837s3.508,7.837,7.837,7.837h25.558c4.329,0,7.837-3.509,7.837-7.837
	C213.195,390.84,209.687,387.332,205.358,387.332z"/>
<path d="M286.822,466.547h-17.763c-4.329,0-7.837,3.509-7.837,7.837c0,4.328,3.508,7.837,7.837,7.837h17.763
	c4.329,0,7.837-3.509,7.837-7.837C294.659,470.056,291.151,466.547,286.822,466.547z"/>
<g>
	<path style="fill:#FFFFFF;" d="M258.088,231.643c12.724,5.269,16.997,9.543,22.267,22.267c5.27-12.724,9.543-16.997,22.267-22.267
		c-12.725-5.271-16.997-9.544-22.267-22.268C275.085,222.1,270.811,226.372,258.088,231.643z"/>
	<circle style="fill:#FFFFFF;" cx="302.6" cy="263.732" r="9.823"/>
</g>
<path d="M353.261,278.201c-16.662-18.954-44.34-64.142-49.92-158.437c10.229-3.076,17.702-12.576,17.702-23.793
	c0-6.163-2.256-11.807-5.984-16.154c0.006-0.006,0.006-0.013,0.01-0.019c3.35-3.717,5.402-8.619,5.402-14.007v-1.007
	c0-4.328-3.508-7.837-7.837-7.837s-7.837,3.509-7.837,7.837v1.006c0,2.941-2.393,5.334-5.334,5.334h-86.93
	c-2.941,0-5.334-2.393-5.334-5.334V34.179c0-10.204,8.302-18.505,18.506-18.505h60.587c10.204,0,18.506,8.302,18.506,18.505
	c0,4.328,3.508,7.837,7.837,7.837c4.329,0,7.837-3.509,7.837-7.837C320.472,15.332,305.139,0,286.293,0h-60.587
	c-18.847,0-34.18,15.333-34.18,34.179V65.79c0,5.389,2.053,10.293,5.404,14.01c0.004,0.005,0.004,0.01,0.008,0.015
	c-3.729,4.347-5.986,9.992-5.986,16.154c0,11.218,7.474,20.718,17.704,23.793c-5.581,94.282-33.259,139.478-49.921,158.439
	c-7.938,7.323-12.48,17.68-12.48,28.491v166.546c0,21.373,17.388,38.76,38.759,38.76h141.971c21.371,0,38.759-17.388,38.759-38.76
	V306.692C365.742,295.881,361.2,285.524,353.261,278.201z M206.624,95.97c0-5.057,4.115-9.171,9.171-9.171h81.002
	c4.608,0.549,8.571,4.483,8.571,9.171c0,5.057-4.115,9.171-9.171,9.171h-80.402C210.739,105.141,206.624,101.027,206.624,95.97z
	 M295.759,184.424h-79.522c3.992-19.608,6.685-40.85,8.04-63.61h63.441C289.073,143.575,291.767,164.817,295.759,184.424z
	 M350.069,466.547h-37.647c-4.329,0-7.837,3.509-7.837,7.837c0,4.328,3.508,7.837,7.837,7.837h35.829
	c-3.51,8.282-11.722,14.106-21.268,14.106H185.012c-12.73,0-23.086-10.357-23.086-23.087v-16.902h75.933
	c12.848,0,23.3-10.451,23.3-23.298v-16.125c0-4.328-3.508-7.837-7.837-7.837c-4.329,0-7.837,3.509-7.837,7.837v16.125
	c0,4.205-3.422,7.625-7.627,7.625h-75.933V318.726h75.933c4.205,0,7.627,3.42,7.627,7.625v63.396c0,4.328,3.508,7.837,7.837,7.837
	c4.329,0,7.837-3.509,7.837-7.837v-63.395c0-12.847-10.452-23.298-23.3-23.298h-75.643c0.83-5.176,3.408-9.97,7.354-13.522
	c0.22-0.197,0.428-0.408,0.625-0.629c9.069-10.238,22.196-28.725,33.243-58.662c3.501-9.488,6.583-19.546,9.249-30.142h86.62
	c2.668,10.602,5.751,20.665,9.253,30.156c11.048,29.935,24.175,48.415,33.241,58.648c0.196,0.22,0.404,0.43,0.624,0.628
	c3.946,3.552,6.524,8.346,7.354,13.523h-13.501c-12.848,0-23.3,10.452-23.3,23.298v106.687c0,12.847,10.452,23.298,23.3,23.298
	h13.792V466.547z M350.069,440.664h-13.792c-4.205,0-7.627-3.42-7.627-7.625V326.352c0-4.205,3.421-7.625,7.627-7.625h13.792
	V440.664z"/>
<g>
</g>
<g>
</g>
<g>
</g>
<g>
</g>
<g>
</g>
<g>
</g>
<g>
</g>
<g>
</g>
<g>
</g>
<g>
</g>
<g>
</g>
<g>
</g>
<g>
</g>
<g>
</g>
<g>
</g>
</svg>
